<?xml version="1.0" encoding="utf-8"?>
<!-- Generator: Adobe Illustrator 27.5.0, SVG Export Plug-In . SVG Version: 6.00 Build 0)  -->
<svg version="1.1" xmlns="http://www.w3.org/2000/svg" xmlns:xlink="http://www.w3.org/1999/xlink" x="0px" y="0px"
	 viewBox="0 0 841.89 566.929" style="enable-background:new 0 0 841.89 566.929;" xml:space="preserve">
<g id="BG">
	<rect y="0" style="fill:#FFFFFF;" width="841.89" height="566.929"/>
</g>
<g id="graphics">
	<g>
		<path style="fill:#FFA605;" d="M266.697,411.489h9.295c0.09,1.823,0.773,3.19,2.051,4.1c1.367,0.912,3.188,1.367,5.468,1.367
			c1.64,0,3.052-0.318,4.237-0.957c1.094-0.636,1.641-1.503,1.641-2.597c0-1.64-1.914-2.87-5.741-3.69
			c-1.641-0.273-2.871-0.547-3.691-0.82c-4.831-1.184-8.064-2.598-9.705-4.237c-1.823-1.641-2.733-3.827-2.733-6.561
			c0-3.462,1.32-6.332,3.964-8.611c2.734-2.096,6.288-3.145,10.662-3.145c4.737,0,8.52,1.049,11.346,3.145
			c2.642,2.279,4.054,5.241,4.237,8.885h-5.878c-1.732,0-3.054-0.773-3.964-2.324c-0.365-0.362-0.73-0.727-1.094-1.093
			c-1.094-0.82-2.597-1.23-4.511-1.23c-1.824,0-3.191,0.273-4.101,0.82c-0.82,0.547-1.23,1.366-1.23,2.46
			c0,1.459,2.369,2.689,7.108,3.691c0.547,0.184,1.024,0.32,1.435,0.41c0.41,0.092,0.797,0.137,1.162,0.137
			c4.647,1.186,7.881,2.552,9.705,4.1c1.73,1.641,2.598,3.828,2.598,6.563c0,4.01-1.459,7.107-4.375,9.295
			c-2.733,2.005-6.834,3.007-12.302,3.007c-5.194,0-9.068-1.047-11.619-3.143c-2.644-2.096-3.964-5.148-3.964-9.158V411.489z"/>
		<path style="fill:#FFA605;" d="M333.573,423.518h-9.433v-21.323v-1.914c0-2.188-0.662-3.781-1.981-4.785
			c-1.322-1.001-2.803-1.503-4.442-1.503c-1.641,0-3.1,0.502-4.374,1.503c-1.277,1.004-1.914,2.598-1.914,4.785v23.237h-9.568
			v-21.323c0-6.197,1.617-10.342,4.853-12.439c3.233-2.096,6.811-3.234,10.73-3.418c2.095,0,4.146,0.228,6.151,0.684
			c2.003,0.457,3.827,1.367,5.467,2.734c1.367-1.184,2.984-2.027,4.853-2.529c1.867-0.5,3.805-0.797,5.81-0.889
			c4.009,0,7.7,1.049,11.072,3.145c3.37,2.098,5.058,6.335,5.058,12.713v21.323h-4.784c-1.367,0-2.484-0.432-3.349-1.298
			c-0.867-0.865-1.299-1.982-1.299-3.35v-18.59c0-2.188-0.662-3.781-1.982-4.785c-1.321-1.001-2.802-1.503-4.442-1.503
			c-1.64,0-3.122,0.502-4.442,1.503c-1.322,1.004-1.982,2.598-1.982,4.785v1.914V423.518z"/>
		<path style="fill:#FFA605;" d="M383.087,422.015c-1.913,1.003-3.942,1.616-6.082,1.845c-2.143,0.227-4.033,0.342-5.673,0.342
			c-3.281,0-6.151-0.889-8.612-2.665c-2.46-1.777-3.69-4.717-3.69-8.817c0-3.827,1.115-6.562,3.349-8.201
			c2.232-1.641,5.079-2.733,8.544-3.28c0.455,0,1.001-0.068,1.64-0.205c0.637-0.137,1.367-0.25,2.188-0.342
			c4.009-0.547,6.015-1.73,6.015-3.555c0-1.367-0.707-2.255-2.119-2.665c-1.414-0.41-2.712-0.615-3.896-0.615
			c-1.277,0-2.416,0.184-3.417,0.547c-1.004,0.365-1.732,1.049-2.188,2.05h-9.158c0.363-2.823,1.641-5.147,3.827-6.971
			c2.461-2.096,5.968-3.145,10.525-3.145c5.102,0,8.93,0.867,11.482,2.598c2.642,1.824,3.964,4.374,3.964,7.654v12.44
			c0,3.646-0.662,6.492-1.982,8.543C386.481,419.622,384.909,421.104,383.087,422.015z M380.9,405.2
			c-1.277,0.639-3.055,1.23-5.331,1.777l-3.145,0.684c-1.64,0.457-2.825,1.049-3.554,1.777c-0.639,1.004-0.957,2.006-0.957,3.008
			c0,1.366,0.41,2.46,1.23,3.279c0.82,0.73,2.004,1.094,3.554,1.094c2.551,0,4.556-0.728,6.015-2.186
			c1.457-1.457,2.188-3.462,2.188-6.015V405.2z"/>
		<path style="fill:#FFA605;" d="M392.552,423.518v-17.634c0-3.553,0.523-6.537,1.572-8.953c1.046-2.413,2.482-4.35,4.306-5.809
			c1.729-1.367,3.759-2.369,6.083-3.008c2.323-0.637,4.716-0.957,7.176-0.957c0.182,0,0.41,0,0.684,0c0.273,0,0.5,0,0.684,0v9.705
			h-3.145c-2.644,0-4.603,0.639-5.877,1.914c-1.277,1.277-1.914,3.281-1.914,6.015v18.727H392.552z"/>
		<path style="fill:#FFA605;" d="M431.542,423.518c-3.008,0.182-6.267,0.137-9.773-0.137c-3.51-0.273-5.263-2.505-5.263-6.698
			v-40.188h4.921c1.183,0,2.231,0.457,3.143,1.367c0.91,0.912,1.367,2.006,1.367,3.281v6.15h5.604v1.914
			c0,1.367-0.457,2.484-1.367,3.35c-0.912,0.867-2.006,1.298-3.28,1.298h-0.957v20.23c0,1.55,0.91,2.323,2.733,2.323h2.871V423.518z
			"/>
		<path style="fill:#FFA605;" d="M457.819,376.358h4.648c1.275,0,2.369,0.479,3.28,1.436c0.91,0.957,1.367,2.029,1.367,3.213v26.654
			c0,6.472-1.868,10.846-5.604,13.123c-3.737,2.278-7.791,3.417-12.165,3.417c-2.371,0-4.694-0.389-6.972-1.162
			c-2.278-0.772-4.1-2.026-5.468-3.759c-2.644-3.371-3.964-7.973-3.964-13.807c0-5.74,1.32-10.341,3.964-13.805
			c2.734-3.555,6.241-5.332,10.525-5.332c2.277,0,4.282,0.457,6.015,1.367c1.822,1.094,3.28,2.508,4.374,4.238V376.358z
			 M442.236,405.065c0,3.645,0.684,6.425,2.051,8.338c1.367,1.913,3.325,2.87,5.878,2.87c2.46,0,4.374-0.957,5.74-2.87
			c1.275-1.913,1.914-4.692,1.914-8.338c0-3.28-0.684-5.878-2.05-7.792c-1.459-1.821-3.418-2.733-5.878-2.733
			c-2.371,0-4.237,0.956-5.605,2.87C442.92,399.233,442.236,401.784,442.236,405.065z"/>
		<path style="fill:#FFA605;" d="M475.665,420.237c-1.914-1.641-3.28-3.85-4.101-6.63c-0.82-2.778-1.23-5.673-1.23-8.68
			c0-2.46,0.342-4.921,1.025-7.382c0.684-2.46,1.754-4.511,3.212-6.15c2.369-2.734,5.421-4.352,9.158-4.854
			c3.736-0.499,7.108-0.205,10.115,0.889c3.463,1.367,6.015,3.738,7.655,7.108c1.548,3.007,2.323,6.517,2.323,10.525
			c0,2.917-0.32,5.423-0.956,7.518c-0.639,2.098-1.459,3.874-2.461,5.331c-2.188,3.008-4.968,4.876-8.338,5.605
			c-3.008,0.82-6.038,0.889-9.09,0.205C479.924,423.039,477.487,421.878,475.665,420.237z M482.227,396.179
			c-1.914,2.098-2.781,5.219-2.598,9.363c0.182,4.148,0.957,7.04,2.324,8.681c0.547,0.73,1.503,1.345,2.87,1.845
			c1.367,0.502,2.756,0.547,4.169,0.137c1.412-0.41,2.666-1.435,3.76-3.075c1.093-1.64,1.684-4.282,1.776-7.929
			c0-3.279-0.525-5.74-1.571-7.381c-1.049-1.641-2.256-2.686-3.623-3.144c-1.366-0.455-2.733-0.479-4.101-0.068
			C483.866,395.018,482.862,395.543,482.227,396.179z"/>
		<path style="fill:#FFA605;" d="M533.016,412.31h6.834c-1.003,3.826-2.917,6.744-5.74,8.748c-2.826,2.097-6.38,3.143-10.662,3.143
			c-5.194,0-9.25-1.685-12.166-5.058c-2.917-3.281-4.374-7.973-4.374-14.079c0-5.831,1.412-10.389,4.237-13.669
			c2.916-3.371,6.972-5.059,12.166-5.059c5.468,0,9.705,1.641,12.712,4.922c1.641,2.005,2.824,4.329,3.555,6.971h-9.569
			c-0.457-0.91-0.911-1.594-1.366-2.051c-1.185-1.275-2.871-1.913-5.058-1.913c-2.006,0-3.646,0.639-4.921,1.913
			c-1.641,1.824-2.461,4.832-2.461,9.021c0,4.193,0.82,7.156,2.461,8.886c1.183,1.458,2.96,2.186,5.331,2.186
			c1.548,0,2.87-0.318,3.964-0.957c0.273-0.089,0.523-0.249,0.752-0.478c0.226-0.227,0.478-0.478,0.752-0.752
			c0.181-0.273,0.546-0.637,1.093-1.094C531.102,412.538,531.922,412.31,533.016,412.31z"/>
		<path style="fill:#FFA605;" d="M542.933,411.489h9.295c0.09,1.823,0.773,3.19,2.051,4.1c1.367,0.912,3.189,1.367,5.468,1.367
			c1.64,0,3.052-0.318,4.237-0.957c1.094-0.636,1.641-1.503,1.641-2.597c0-1.64-1.914-2.87-5.741-3.69
			c-1.641-0.273-2.871-0.547-3.691-0.82c-4.831-1.184-8.064-2.598-9.705-4.237c-1.823-1.641-2.733-3.827-2.733-6.561
			c0-3.462,1.32-6.332,3.964-8.611c2.734-2.096,6.288-3.145,10.662-3.145c4.737,0,8.519,1.049,11.346,3.145
			c2.642,2.279,4.054,5.241,4.237,8.885h-5.878c-1.732,0-3.054-0.773-3.964-2.324c-0.365-0.362-0.73-0.727-1.094-1.093
			c-1.094-0.82-2.597-1.23-4.511-1.23c-1.824,0-3.19,0.273-4.101,0.82c-0.82,0.547-1.23,1.366-1.23,2.46
			c0,1.459,2.369,2.689,7.108,3.691c0.547,0.184,1.024,0.32,1.434,0.41c0.41,0.092,0.797,0.137,1.162,0.137
			c4.648,1.186,7.881,2.552,9.705,4.1c1.731,1.641,2.598,3.828,2.598,6.563c0,4.01-1.459,7.107-4.375,9.295
			c-2.733,2.005-6.834,3.007-12.302,3.007c-5.194,0-9.068-1.047-11.619-3.143c-2.644-2.096-3.964-5.148-3.964-9.158V411.489z"/>
	</g>
	<g>
		<path style="fill:#8C9799;" d="M332.73,459.223v-3.041h-0.062c-0.207,0.517-0.512,0.993-0.915,1.427
			c-0.403,0.435-0.864,0.803-1.381,1.103c-0.517,0.299-1.07,0.531-1.66,0.697c-0.589,0.165-1.174,0.248-1.752,0.248
			c-1.222,0-2.28-0.222-3.181-0.666c-0.899-0.445-1.649-1.055-2.249-1.831c-0.601-0.775-1.045-1.676-1.334-2.699
			c-0.29-1.023-0.435-2.103-0.435-3.241c0-1.138,0.145-2.219,0.435-3.242c0.289-1.024,0.733-1.924,1.334-2.699
			c0.6-0.775,1.35-1.391,2.249-1.847c0.9-0.454,1.959-0.682,3.181-0.682c0.6,0,1.184,0.073,1.752,0.217
			c0.569,0.145,1.102,0.368,1.599,0.667c0.496,0.3,0.935,0.667,1.318,1.1c0.382,0.435,0.677,0.942,0.884,1.521h0.061v-9.183h1.955
			v22.151H332.73z M322.012,453.685c0.197,0.817,0.507,1.547,0.932,2.188c0.423,0.642,0.966,1.163,1.628,1.566
			c0.662,0.403,1.458,0.604,2.39,0.604c1.033,0,1.907-0.201,2.621-0.604c0.713-0.403,1.292-0.925,1.737-1.566
			c0.444-0.641,0.765-1.37,0.962-2.188c0.196-0.816,0.294-1.64,0.294-2.466c0-0.827-0.098-1.649-0.294-2.467
			c-0.197-0.816-0.518-1.546-0.962-2.187c-0.445-0.641-1.024-1.164-1.737-1.567c-0.714-0.403-1.588-0.605-2.621-0.605
			c-0.932,0-1.728,0.202-2.39,0.605c-0.662,0.403-1.205,0.927-1.628,1.567c-0.425,0.641-0.734,1.37-0.932,2.187
			c-0.196,0.817-0.294,1.64-0.294,2.467C321.718,452.045,321.815,452.868,322.012,453.685z"/>
		<path style="fill:#8C9799;" d="M340.238,437.071v3.134h-1.955v-3.134H340.238z M340.238,443.215v16.008h-1.955v-16.008H340.238z"
			/>
		<path style="fill:#8C9799;" d="M357.131,461.115c-0.26,0.95-0.667,1.757-1.227,2.419c-0.558,0.662-1.287,1.168-2.186,1.52
			c-0.9,0.352-2.001,0.527-3.304,0.527c-0.807,0-1.593-0.093-2.358-0.279c-0.767-0.186-1.454-0.476-2.063-0.868
			c-0.61-0.393-1.117-0.896-1.521-1.505c-0.403-0.61-0.636-1.34-0.697-2.186h1.954c0.103,0.599,0.305,1.101,0.605,1.504
			c0.3,0.403,0.662,0.728,1.086,0.978c0.424,0.248,0.895,0.429,1.412,0.542c0.517,0.114,1.044,0.171,1.582,0.171
			c1.819,0,3.133-0.517,3.939-1.551c0.807-1.035,1.21-2.523,1.21-4.467v-2.173h-0.061c-0.456,0.993-1.123,1.79-2.001,2.389
			c-0.88,0.601-1.908,0.9-3.087,0.9c-1.283,0-2.379-0.212-3.289-0.637c-0.91-0.423-1.659-1.007-2.249-1.752
			c-0.59-0.744-1.019-1.618-1.287-2.622c-0.27-1.003-0.403-2.073-0.403-3.211c0-1.095,0.159-2.136,0.48-3.117
			c0.32-0.981,0.786-1.841,1.396-2.575c0.61-0.733,1.365-1.313,2.266-1.737c0.9-0.424,1.928-0.636,3.087-0.636
			c0.6,0,1.163,0.083,1.69,0.248c0.527,0.166,1.009,0.398,1.442,0.697c0.434,0.301,0.822,0.647,1.164,1.039
			c0.341,0.395,0.605,0.808,0.791,1.241h0.061v-2.76h1.955v14.705C357.519,459.098,357.389,460.164,357.131,461.115z
			 M352.647,456.849c0.641-0.361,1.179-0.838,1.613-1.427c0.435-0.589,0.76-1.267,0.978-2.032c0.217-0.766,0.325-1.551,0.325-2.357
			c0-0.785-0.093-1.572-0.278-2.357c-0.187-0.787-0.487-1.499-0.9-2.141c-0.414-0.642-0.946-1.158-1.598-1.551
			c-0.651-0.393-1.442-0.591-2.373-0.591c-0.931,0-1.728,0.192-2.39,0.575c-0.661,0.382-1.209,0.884-1.643,1.504
			c-0.435,0.621-0.75,1.329-0.946,2.126c-0.197,0.795-0.295,1.607-0.295,2.435c0,0.807,0.104,1.592,0.311,2.357
			c0.206,0.766,0.527,1.443,0.962,2.032c0.434,0.589,0.982,1.065,1.645,1.427c0.661,0.363,1.446,0.544,2.358,0.544
			C351.262,457.393,352.006,457.212,352.647,456.849z"/>
		<path style="fill:#8C9799;" d="M363.227,437.071v3.134h-1.954v-3.134H363.227z M363.227,443.215v16.008h-1.954v-16.008H363.227z"
			/>
		<path style="fill:#8C9799;" d="M373.34,443.215v1.643h-3.258v10.796c0,0.642,0.088,1.144,0.264,1.505
			c0.176,0.362,0.615,0.563,1.318,0.605c0.559,0,1.117-0.031,1.676-0.093v1.644c-0.29,0-0.579,0.01-0.869,0.031
			c-0.29,0.02-0.578,0.03-0.868,0.03c-1.303,0-2.213-0.252-2.729-0.76c-0.517-0.507-0.766-1.442-0.745-2.808v-10.951h-2.792v-1.643
			h2.792v-4.81h1.954v4.81H373.34z"/>
		<path style="fill:#8C9799;" d="M376.566,445.695c0.33-0.682,0.78-1.239,1.349-1.675c0.568-0.435,1.235-0.754,2.002-0.962
			c0.765-0.206,1.612-0.309,2.544-0.309c0.702,0,1.405,0.067,2.109,0.202c0.703,0.135,1.334,0.387,1.892,0.76
			c0.559,0.372,1.014,0.893,1.365,1.566c0.352,0.672,0.527,1.546,0.527,2.621v8.501c0,0.786,0.383,1.179,1.148,1.179
			c0.227,0,0.434-0.041,0.62-0.124v1.644c-0.228,0.043-0.43,0.073-0.604,0.093c-0.177,0.022-0.4,0.032-0.667,0.032
			c-0.497,0-0.896-0.067-1.194-0.202c-0.301-0.134-0.533-0.325-0.698-0.573c-0.166-0.248-0.274-0.544-0.326-0.885
			c-0.052-0.341-0.077-0.718-0.077-1.132h-0.063c-0.352,0.518-0.709,0.978-1.07,1.38c-0.362,0.403-0.766,0.739-1.21,1.009
			c-0.444,0.268-0.951,0.475-1.52,0.62c-0.569,0.145-1.247,0.217-2.032,0.217c-0.744,0-1.443-0.089-2.095-0.264
			c-0.651-0.175-1.22-0.454-1.706-0.837c-0.486-0.383-0.868-0.869-1.147-1.459c-0.279-0.589-0.419-1.287-0.419-2.094
			c0-1.116,0.248-1.99,0.745-2.621c0.496-0.631,1.152-1.111,1.97-1.442c0.816-0.331,1.736-0.564,2.761-0.698
			c1.023-0.135,2.063-0.264,3.117-0.389c0.414-0.04,0.776-0.093,1.087-0.154c0.31-0.061,0.568-0.171,0.775-0.325
			c0.206-0.155,0.366-0.367,0.48-0.637c0.113-0.269,0.171-0.62,0.171-1.055c0-0.662-0.108-1.205-0.326-1.629
			c-0.217-0.424-0.517-0.76-0.899-1.008c-0.383-0.248-0.827-0.419-1.334-0.512c-0.507-0.094-1.05-0.141-1.629-0.141
			c-1.24,0-2.254,0.295-3.04,0.885c-0.786,0.59-1.2,1.536-1.24,2.839h-1.955C376.039,447.186,376.234,446.379,376.566,445.695z
			 M386.338,450.474c-0.123,0.228-0.362,0.393-0.713,0.497c-0.352,0.103-0.662,0.175-0.931,0.216
			c-0.828,0.145-1.681,0.275-2.56,0.389c-0.88,0.113-1.681,0.284-2.404,0.512c-0.725,0.228-1.318,0.553-1.784,0.978
			c-0.465,0.424-0.698,1.028-0.698,1.814c0,0.497,0.099,0.936,0.295,1.318c0.196,0.384,0.46,0.714,0.791,0.993
			c0.331,0.279,0.714,0.491,1.147,0.636c0.436,0.145,0.88,0.217,1.335,0.217c0.744,0,1.458-0.113,2.141-0.341
			c0.683-0.227,1.276-0.558,1.783-0.992c0.507-0.435,0.91-0.963,1.211-1.583c0.299-0.62,0.449-1.323,0.449-2.109v-2.544H386.338z"/>
		<path style="fill:#8C9799;" d="M394.25,437.071v22.151h-1.955v-22.151H394.25z"/>
		<path style="fill:#8C9799;" d="M415.842,446.332c-0.228-0.444-0.533-0.812-0.916-1.101c-0.383-0.29-0.821-0.502-1.318-0.637
			c-0.496-0.135-1.023-0.202-1.582-0.202c-0.435,0-0.874,0.047-1.318,0.141c-0.445,0.093-0.853,0.248-1.226,0.465
			c-0.372,0.217-0.672,0.502-0.899,0.853c-0.228,0.352-0.341,0.785-0.341,1.303c0,0.435,0.108,0.801,0.325,1.101
			c0.218,0.301,0.491,0.555,0.822,0.761c0.33,0.207,0.692,0.377,1.086,0.512c0.393,0.135,0.755,0.243,1.086,0.325l2.605,0.591
			c0.559,0.082,1.111,0.232,1.66,0.449c0.548,0.217,1.034,0.502,1.458,0.853c0.424,0.351,0.771,0.786,1.039,1.303
			c0.269,0.517,0.403,1.127,0.403,1.83c0,0.868-0.197,1.608-0.589,2.218c-0.394,0.61-0.896,1.106-1.505,1.489
			c-0.61,0.383-1.298,0.656-2.064,0.822c-0.766,0.165-1.519,0.248-2.265,0.248c-1.882,0-3.407-0.444-4.575-1.334
			c-1.169-0.889-1.836-2.315-2.002-4.28h1.955c0.082,1.323,0.564,2.321,1.442,2.993c0.879,0.672,1.97,1.008,3.273,1.008
			c0.475,0,0.966-0.051,1.473-0.155c0.507-0.103,0.978-0.279,1.412-0.527c0.434-0.248,0.791-0.563,1.07-0.945
			s0.419-0.853,0.419-1.412c0-0.476-0.099-0.874-0.295-1.194c-0.197-0.32-0.461-0.59-0.791-0.806
			c-0.331-0.218-0.709-0.398-1.133-0.544c-0.424-0.145-0.852-0.269-1.287-0.372l-2.513-0.559c-0.642-0.165-1.231-0.358-1.768-0.573
			c-0.538-0.218-1.008-0.486-1.411-0.808c-0.403-0.32-0.719-0.713-0.946-1.179c-0.228-0.465-0.341-1.039-0.341-1.722
			c0-0.807,0.181-1.499,0.542-2.079c0.362-0.578,0.833-1.043,1.412-1.396c0.579-0.352,1.225-0.609,1.939-0.775
			c0.714-0.165,1.422-0.248,2.125-0.248c0.807,0,1.556,0.103,2.249,0.309c0.693,0.208,1.303,0.527,1.83,0.962
			c0.527,0.436,0.947,0.973,1.257,1.613c0.311,0.642,0.486,1.396,0.527,2.265h-1.954
			C416.192,447.299,416.069,446.777,415.842,446.332z"/>
		<path style="fill:#8C9799;" d="M431.555,443.431c0.939,0.456,1.732,1.066,2.373,1.831c0.641,0.766,1.127,1.66,1.457,2.684
			c0.332,1.023,0.498,2.115,0.498,3.273c0,1.157-0.166,2.248-0.498,3.272c-0.33,1.023-0.816,1.919-1.457,2.684
			c-0.641,0.765-1.434,1.37-2.373,1.815c-0.941,0.444-2.023,0.666-3.24,0.666c-1.223,0-2.303-0.222-3.244-0.666
			c-0.941-0.445-1.732-1.051-2.373-1.815c-0.641-0.765-1.128-1.66-1.458-2.684c-0.331-1.025-0.497-2.115-0.497-3.272
			c0-1.158,0.166-2.25,0.497-3.273c0.33-1.023,0.817-1.918,1.458-2.684c0.641-0.765,1.432-1.375,2.373-1.831
			c0.941-0.454,2.022-0.682,3.244-0.682C429.531,442.749,430.613,442.977,431.555,443.431z M425.861,444.983
			c-0.703,0.393-1.287,0.909-1.754,1.551c-0.465,0.642-0.816,1.369-1.055,2.186c-0.236,0.818-0.355,1.65-0.355,2.498
			c0,0.848,0.119,1.681,0.355,2.496c0.238,0.818,0.59,1.548,1.055,2.189c0.467,0.641,1.051,1.158,1.754,1.551
			c0.703,0.393,1.521,0.589,2.453,0.589c0.928,0,1.744-0.196,2.449-0.589c0.703-0.392,1.287-0.91,1.754-1.551
			c0.463-0.641,0.816-1.37,1.055-2.189c0.236-0.815,0.355-1.648,0.355-2.496c0-0.849-0.119-1.68-0.355-2.498
			c-0.238-0.817-0.592-1.545-1.055-2.186c-0.467-0.642-1.051-1.158-1.754-1.551c-0.705-0.393-1.522-0.591-2.449-0.591
			C427.383,444.393,426.564,444.59,425.861,444.983z"/>
		<path style="fill:#8C9799;" d="M440.785,437.071v22.151h-1.955v-22.151H440.785z"/>
		<path style="fill:#8C9799;" d="M455.705,459.223v-2.886h-0.061c-0.517,1.075-1.267,1.897-2.25,2.467
			c-0.98,0.567-2.074,0.853-3.272,0.853c-1.016,0-1.877-0.139-2.59-0.418c-0.715-0.279-1.293-0.678-1.738-1.195
			c-0.445-0.517-0.772-1.147-0.979-1.892c-0.205-0.745-0.309-1.593-0.309-2.544v-10.393h1.955v10.423
			c0.039,1.448,0.377,2.544,1.008,3.289c0.629,0.745,1.721,1.116,3.271,1.116c0.848,0,1.572-0.181,2.172-0.542
			c0.6-0.362,1.098-0.843,1.49-1.443c0.393-0.599,0.682-1.287,0.869-2.064c0.186-0.775,0.277-1.566,0.277-2.373v-8.406h1.955v16.008
			H455.705z"/>
		<path style="fill:#8C9799;" d="M467.557,443.215v1.643h-3.258v10.796c0,0.642,0.088,1.144,0.266,1.505
			c0.174,0.362,0.613,0.563,1.316,0.605c0.559,0,1.117-0.031,1.676-0.093v1.644c-0.291,0-0.58,0.01-0.867,0.031
			c-0.293,0.02-0.582,0.03-0.871,0.03c-1.303,0-2.213-0.252-2.729-0.76c-0.52-0.507-0.766-1.442-0.746-2.808v-10.951h-2.791v-1.643
			h2.791v-4.81h1.955v4.81H467.557z"/>
		<path style="fill:#8C9799;" d="M472.365,437.071v3.134h-1.953v-3.134H472.365z M472.365,443.215v16.008h-1.953v-16.008H472.365z"
			/>
		<path style="fill:#8C9799;" d="M486.123,443.431c0.943,0.456,1.733,1.066,2.375,1.831c0.641,0.766,1.127,1.66,1.459,2.684
			c0.33,1.023,0.496,2.115,0.496,3.273c0,1.157-0.166,2.248-0.496,3.272c-0.332,1.023-0.818,1.919-1.459,2.684
			c-0.642,0.765-1.432,1.37-2.375,1.815c-0.939,0.444-2.021,0.666-3.24,0.666c-1.221,0-2.303-0.222-3.242-0.666
			c-0.941-0.445-1.732-1.051-2.373-1.815c-0.641-0.765-1.129-1.66-1.459-2.684c-0.332-1.025-0.496-2.115-0.496-3.272
			c0-1.158,0.164-2.25,0.496-3.273c0.33-1.023,0.818-1.918,1.459-2.684c0.641-0.765,1.432-1.375,2.373-1.831
			c0.939-0.454,2.021-0.682,3.242-0.682C484.102,442.749,485.184,442.977,486.123,443.431z M480.432,444.983
			c-0.705,0.393-1.287,0.909-1.752,1.551c-0.467,0.642-0.82,1.369-1.055,2.186c-0.238,0.818-0.357,1.65-0.357,2.498
			c0,0.848,0.119,1.681,0.357,2.496c0.234,0.818,0.588,1.548,1.055,2.189c0.465,0.641,1.047,1.158,1.752,1.551
			c0.703,0.393,1.52,0.589,2.451,0.589c0.932,0,1.748-0.196,2.451-0.589c0.701-0.392,1.287-0.91,1.752-1.551
			c0.465-0.641,0.816-1.37,1.055-2.189c0.238-0.815,0.357-1.648,0.357-2.496c0-0.849-0.119-1.68-0.357-2.498
			c-0.238-0.817-0.59-1.545-1.055-2.186c-0.465-0.642-1.051-1.158-1.752-1.551c-0.703-0.393-1.52-0.591-2.451-0.591
			C481.951,444.393,481.135,444.59,480.432,444.983z"/>
		<path style="fill:#8C9799;" d="M495.291,443.215v2.76h0.063c0.373-0.972,1.035-1.752,1.986-2.342
			c0.949-0.589,1.994-0.884,3.133-0.884c1.117,0,2.051,0.144,2.807,0.434c0.754,0.289,1.361,0.697,1.816,1.225
			c0.453,0.527,0.773,1.174,0.961,1.939c0.186,0.765,0.279,1.623,0.279,2.575v10.3h-1.953v-9.99c0-0.683-0.064-1.318-0.188-1.907
			c-0.125-0.59-0.342-1.103-0.652-1.536c-0.311-0.435-0.729-0.775-1.256-1.023c-0.527-0.248-1.184-0.373-1.969-0.373
			c-0.789,0-1.486,0.141-2.094,0.42c-0.611,0.278-1.129,0.662-1.555,1.147c-0.424,0.487-0.754,1.066-0.99,1.738
			c-0.238,0.672-0.369,1.401-0.389,2.186v9.339h-1.955v-16.008H495.291z"/>
		<path style="fill:#8C9799;" d="M519.24,446.332c-0.227-0.444-0.531-0.812-0.914-1.101c-0.383-0.29-0.822-0.502-1.318-0.637
			c-0.496-0.135-1.023-0.202-1.582-0.202c-0.434,0-0.873,0.047-1.318,0.141c-0.445,0.093-0.853,0.248-1.227,0.465
			c-0.371,0.217-0.672,0.502-0.898,0.853c-0.229,0.352-0.34,0.785-0.34,1.303c0,0.435,0.107,0.801,0.324,1.101
			c0.215,0.301,0.49,0.555,0.822,0.761c0.33,0.207,0.693,0.377,1.086,0.512c0.393,0.135,0.754,0.243,1.086,0.325l2.606,0.591
			c0.559,0.082,1.111,0.232,1.66,0.449c0.549,0.217,1.033,0.502,1.457,0.853c0.424,0.351,0.769,0.786,1.039,1.303
			c0.269,0.517,0.404,1.127,0.404,1.83c0,0.868-0.197,1.608-0.59,2.218c-0.395,0.61-0.895,1.106-1.504,1.489
			c-0.611,0.383-1.301,0.656-2.063,0.822c-0.766,0.165-1.522,0.248-2.268,0.248c-1.881,0-3.406-0.444-4.576-1.334
			c-1.166-0.889-1.834-2.315-1.998-4.28h1.953c0.082,1.323,0.564,2.321,1.443,2.993c0.879,0.672,1.969,1.008,3.273,1.008
			c0.475,0,0.967-0.051,1.473-0.155c0.506-0.103,0.977-0.279,1.412-0.527c0.434-0.248,0.791-0.563,1.07-0.945
			s0.418-0.853,0.418-1.412c0-0.476-0.1-0.874-0.295-1.194c-0.197-0.32-0.459-0.59-0.791-0.806c-0.33-0.218-0.707-0.398-1.131-0.544
			c-0.424-0.145-0.854-0.269-1.289-0.372l-2.514-0.559c-0.639-0.165-1.229-0.358-1.768-0.573c-0.537-0.218-1.008-0.486-1.412-0.808
			c-0.402-0.32-0.719-0.713-0.945-1.179c-0.228-0.465-0.34-1.039-0.34-1.722c0-0.807,0.18-1.499,0.543-2.079
			c0.361-0.578,0.83-1.043,1.412-1.396c0.576-0.352,1.225-0.609,1.938-0.775c0.713-0.165,1.422-0.248,2.123-0.248
			c0.809,0,1.559,0.103,2.252,0.309c0.691,0.208,1.301,0.527,1.828,0.962c0.527,0.436,0.947,0.973,1.258,1.613
			c0.309,0.642,0.486,1.396,0.527,2.265h-1.955C519.594,447.299,519.469,446.777,519.24,446.332z"/>
	</g>
	<g>
		<g>
			<radialGradient id="SVGID_1_" cx="318.4617" cy="374.3344" r="300.3419" gradientUnits="userSpaceOnUse">
				<stop  offset="0" style="stop-color:#17F0FF"/>
				<stop  offset="0.8545" style="stop-color:#0077FF"/>
			</radialGradient>
			<path style="fill:url(#SVGID_1_);" d="M458.674,246.246V193.15c0-8.645-7.009-15.654-15.654-15.654H316.466
				c-8.646,0-15.653,7.01-15.653,15.654v135.379c0,8.645,7.008,15.654,15.653,15.654h210.958c8.646,0,15.653-7.01,15.653-15.654
				v-50.975c0-8.645-7.008-15.654-15.653-15.654h-53.096C465.682,261.9,458.674,254.893,458.674,246.246z"/>
		</g>
		<path style="fill:#D1D3D4;" d="M491.334,344.223h18.241c8.425-25.763-10.241-50.763-41.908-50.763
			C445.633,293.46,501.667,304.46,491.334,344.223z"/>
		<path style="fill:#D1D3D4;" d="M384.667,344.184h17.174c8.425-25.763-10.241-50.763-41.908-50.763
			C337.898,293.421,384.667,314.676,384.667,344.184z"/>
		<path style="fill:#FFFFFF;" d="M407.815,195.051c0,3.689-2.991,6.68-6.68,6.68h-68.08c-3.69,0-6.68-2.99-6.68-6.68l0,0
			c0-3.689,2.99-6.68,6.68-6.68h68.08C404.824,188.371,407.815,191.361,407.815,195.051L407.815,195.051z"/>
		<path style="fill:#FFFFFF;" d="M407.815,224c0,3.691-2.991,6.682-6.68,6.682h-68.08c-3.69,0-6.68-2.99-6.68-6.682l0,0
			c0-3.688,2.99-6.678,6.68-6.678h68.08C404.824,217.322,407.815,220.313,407.815,224L407.815,224z"/>
		<path style="fill:#FFFFFF;" d="M407.815,252.951c0,3.689-2.991,6.68-6.68,6.68h-68.08c-3.69,0-6.68-2.99-6.68-6.68l0,0
			c0-3.688,2.99-6.68,6.68-6.68h68.08C404.824,246.271,407.815,249.264,407.815,252.951L407.815,252.951z"/>
		
			<linearGradient id="SVGID_00000042009933259312779030000006181818144753768332_" gradientUnits="userSpaceOnUse" x1="361.9615" y1="297.9104" x2="361.9615" y2="394.0247" gradientTransform="matrix(0.9652 0.2614 -0.2614 0.9652 98.1029 -83.524)">
			<stop  offset="0" style="stop-color:#767676"/>
			<stop  offset="0.8545" style="stop-color:#5C5C5C"/>
		</linearGradient>
		<path style="fill:url(#SVGID_00000042009933259312779030000006181818144753768332_);" d="M395.843,327.458
			c-0.043-18.818-15.335-34.04-34.153-33.995c-18.818,0.041-34.04,15.331-33.997,34.149c0.043,18.818,15.333,34.042,34.151,33.999
			C380.663,361.568,395.885,346.275,395.843,327.458z M351.367,313.322l24.691,14.182l-24.627,14.294L351.367,313.322z"/>
		
			<linearGradient id="SVGID_00000096049288170196596690000015855424645102346147_" gradientUnits="userSpaceOnUse" x1="468.7709" y1="302.0851" x2="469.7516" y2="372.6961" gradientTransform="matrix(-0.3837 -0.9235 0.9235 -0.3837 347.5393 886.2792)">
			<stop  offset="0" style="stop-color:#767676"/>
			<stop  offset="0.8545" style="stop-color:#5C5C5C"/>
		</linearGradient>
		<path style="fill:url(#SVGID_00000096049288170196596690000015855424645102346147_);" d="M503.697,327.573
			c0.02-18.817-15.222-34.091-34.039-34.11c-18.818-0.021-34.092,15.219-34.111,34.036c-0.023,18.819,15.218,34.093,34.035,34.114
			C488.402,361.634,503.676,346.395,503.697,327.573z M459.269,313.288l24.646,14.265l-24.677,14.21L459.269,313.288z"/>
		<path style="fill:#D1D3D4;" d="M458.674,245.756V192.66c0-7.324-5.039-13.457-11.834-15.164v68.26
			c0,19.072,19.461,34.588,38.532,34.588h57.705v-3.279c0-8.645-7.008-15.654-15.653-15.654h-53.096
			C465.682,261.41,458.674,254.402,458.674,245.756z"/>
		
			<radialGradient id="SVGID_00000055671616240797288370000010430839105466825892_" cx="449.7878" cy="266.0232" r="192.0436" gradientUnits="userSpaceOnUse">
			<stop  offset="0" style="stop-color:#FFDE17"/>
			<stop  offset="0.8545" style="stop-color:#FF9700"/>
		</radialGradient>
		<path style="fill:url(#SVGID_00000055671616240797288370000010430839105466825892_);" d="M495.59,223.6l-41.87-41.869
			c0,0,4.71,4.115,4.954,11.42v53.096c0,8.646,7.008,15.654,15.654,15.654h53.096c4.25,0,8.1,1.699,10.918,4.449L495.59,223.6z"/>
	</g>
</g>
</svg>
